<svg fill="none" width="40" height="40" viewBox="0 0 40 40" xmlns="http://www.w3.org/2000/svg">
  <path fill-rule="evenodd" clip-rule="evenodd" d="M7.935 21.747c-1.03 0-1.867.89-1.867 1.984v.137c0 1.094.837 1.985 1.867 1.985h.13c1.03 0 1.867-.89 1.867-1.985v-.137c0-1.094-.838-1.984-1.867-1.984h-.13zm.13 5.453h-.13c-1.729 0-3.135-1.495-3.135-3.332v-.137c0-1.837 1.406-3.331 3.135-3.331h.13c1.728 0 3.135 1.494 3.135 3.331v.137c0 1.837-1.407 3.332-3.135 3.332zM31.135 21.747c-1.03 0-1.867.89-1.867 1.984v.137c0 1.094.838 1.985 1.867 1.985h.13c1.03 0 1.867-.89 1.867-1.985v-.137c0-1.094-.837-1.984-1.867-1.984h-.13zm.13 5.453h-.13C29.406 27.2 28 25.705 28 23.868v-.137c0-1.837 1.407-3.331 3.135-3.331h.13c1.728 0 3.135 1.494 3.135 3.331v.137c0 1.837-1.407 3.332-3.135 3.332z" fill="#00B1AC"/>
  <path fill-rule="evenodd" clip-rule="evenodd" d="M24.945 23.2H14.254c-.361 0-.654-.269-.654-.6 0-.331.293-.6.654-.6h10.691c.362 0 .655.269.655.6 0 .331-.293.6-.655.6zM24.945 25.6H14.254c-.361 0-.654-.269-.654-.6 0-.331.293-.6.654-.6h10.691c.362 0 .655.269.655.6 0 .331-.293.6-.655.6z" fill="#00807B"/>
  <path fill-rule="evenodd" clip-rule="evenodd" d="M37.205 17.63a.668.668 0 00-.05-.218L35.85 14.41h1.235c.88 0 1.596.725 1.596 1.615 0 .85-.653 1.54-1.476 1.604zm-1.314 15.935c0 1.048-.841 1.9-1.876 1.9h-1.058c-1.035 0-1.877-.852-1.877-1.9V29.76h4.811v3.805zm-27.19 0c0 1.048-.842 1.9-1.877 1.9H5.766c-1.035 0-1.877-.852-1.877-1.9V29.76h4.812v3.805zm-7.382-17.54c0-.89.716-1.615 1.596-1.615h1.016l-1.305 3.002a.682.682 0 00-.048.191 1.613 1.613 0 01-1.259-1.578zm18.572 12.4H3.889v-9.376h32.002v9.375h-16zM8.34 7.582a4.378 4.378 0 014.008-2.647h15.084a4.378 4.378 0 014.007 2.647l4.405 10.13H3.935l4.406-10.13zM40 16.025c0-1.627-1.308-2.95-2.915-2.95h-1.716c-.033 0-.064.005-.096.01l-2.626-6.04A5.697 5.697 0 0027.434 3.6H12.348a5.697 5.697 0 00-5.215 3.445l-2.622 6.03H2.915C1.308 13.075 0 14.398 0 16.025c0 1.51 1.125 2.756 2.57 2.93v14.61c0 1.784 1.434 3.235 3.196 3.235h1.058c1.762 0 3.196-1.45 3.196-3.235V29.76h19.74v3.805c0 1.784 1.435 3.235 3.197 3.235h1.058c1.762 0 3.195-1.45 3.195-3.235V18.97c1.55-.067 2.79-1.36 2.79-2.945z" fill="#00807B"/>
  <path fill-rule="evenodd" clip-rule="evenodd" d="M28.946 14.8a.653.653 0 01-.598-.4L25.655 8.14a.675.675 0 01.335-.882.648.648 0 01.862.343l2.692 6.262a.675.675 0 01-.335.882.64.64 0 01-.263.056zM31.377 15.6a.624.624 0 01-.57-.406l-1.554-3.842c-.139-.344.004-.744.32-.895.315-.15.683.005.821.348l1.553 3.843c.139.343-.004.743-.319.894a.583.583 0 01-.25.058z" fill="#00B1AC"/>
</svg>
