<svg width="40" height="40" viewBox="0 0 40 40" fill="none" xmlns="http://www.w3.org/2000/svg">
<path fill-rule="evenodd" clip-rule="evenodd" d="M31.9547 26.66H34.3562C34.8222 26.66 35.2001 27.0417 35.2001 27.5124V30.7476C35.2001 31.2184 34.8222 31.6 34.3562 31.6H27.6835C27.2179 31.6 26.8401 31.2184 26.8401 30.7476V27.7875L31.9547 26.66Z" fill="#00B1AC"/>
<path fill-rule="evenodd" clip-rule="evenodd" d="M6.73485 30.145C6.359 30.2042 5.98175 30.1135 5.67377 29.8883C5.3658 29.6632 5.1636 29.3313 5.10416 28.9534L3.3162 17.561L30.1257 13.3173L31.9136 24.7097C32.0362 25.49 31.5036 26.2242 30.7271 26.3474L6.73485 30.145ZM2.42215 11.8633C2.29953 11.083 2.83217 10.3488 3.60866 10.2256L27.6005 6.42754C27.6753 6.41626 27.7498 6.41015 27.8232 6.41015C28.5127 6.41015 29.1207 6.91453 29.2311 7.61962L29.4418 8.95977L2.63231 13.2035L2.42215 11.8633ZM36.1697 12.0345H33.843C33.4555 12.0345 33.1409 12.3503 33.1409 12.7396C33.1409 13.1288 33.4555 13.4446 33.843 13.4446H36.1697C36.956 13.4446 37.5958 14.0872 37.5958 14.8769V32.1775C37.5958 32.9672 36.956 33.6098 36.1697 33.6098H11.8816C11.0948 33.6098 10.4555 32.9672 10.4555 32.1775V30.9836L30.9458 27.7402C32.4871 27.4962 33.5435 26.0385 33.301 24.4902L30.6186 7.40013C30.3757 5.85222 28.9238 4.79129 27.3821 5.03478L3.39026 8.83288C2.64372 8.95086 1.98705 9.35417 1.5424 9.96807C1.09775 10.582 0.917552 11.3327 1.03503 12.0829L3.71696 29.1729C3.83491 29.9227 4.2365 30.5821 4.84777 31.0287C5.33688 31.3864 5.91352 31.573 6.50654 31.573C6.65491 31.573 6.80422 31.5618 6.95353 31.5378L9.05133 31.2059V32.1775C9.05133 33.7447 10.3207 35.02 11.8816 35.02H36.1697C37.7302 35.02 39 33.7447 39 32.1775V14.8769C39 13.3097 37.7302 12.0345 36.1697 12.0345V12.0345Z" fill="#00807B"/>
<path fill-rule="evenodd" clip-rule="evenodd" d="M9.9356 20.8441C9.82002 20.8441 9.7035 20.8534 9.58698 20.8717C9.00487 20.9634 8.49341 21.2765 8.14713 21.7523C7.80039 22.2287 7.66001 22.8113 7.75172 23.3934C7.94077 24.595 9.07178 25.42 10.2739 25.2291C11.4751 25.0395 12.2982 23.9081 12.1092 22.7064C12.0175 22.1248 11.7044 21.6134 11.228 21.2666C10.8471 20.9896 10.3979 20.8441 9.9356 20.8441M9.92807 26.66C8.18359 26.66 6.64501 25.3886 6.36471 23.6119C6.21497 22.6596 6.44473 21.706 7.01187 20.9264C7.57901 20.1468 8.41569 19.6349 9.36841 19.4852C10.3197 19.334 11.2743 19.5647 12.0539 20.1319C12.8335 20.6985 13.3459 21.5361 13.4956 22.4884C13.8059 24.4541 12.4582 26.3057 10.4919 26.6155C10.3029 26.6455 10.1143 26.66 9.92807 26.66" fill="#00B1AC"/>
<path fill-rule="evenodd" clip-rule="evenodd" d="M19.5452 19.44C19.2132 19.44 18.9218 19.1984 18.8683 18.8591C18.8093 18.484 19.065 18.1319 19.4396 18.0732L27.567 16.7888C27.9425 16.7283 28.2924 16.9856 28.3514 17.3611C28.4104 17.7362 28.1547 18.0883 27.7806 18.1474L19.6527 19.4313C19.6166 19.4373 19.5809 19.44 19.5452 19.44" fill="#00807B"/>
<path fill-rule="evenodd" clip-rule="evenodd" d="M20.3052 22.48C19.9732 22.48 19.6819 22.2383 19.6283 21.899C19.5693 21.5239 19.825 21.1718 20.1996 21.1131L28.327 19.8287C28.7012 19.7686 29.0524 20.0254 29.1114 20.4009C29.1704 20.776 28.9147 21.1282 28.5402 21.1873L20.4127 22.4713C20.3766 22.4772 20.3409 22.48 20.3052 22.48" fill="#00807B"/>
<path fill-rule="evenodd" clip-rule="evenodd" d="M20.6854 25.14C20.3533 25.14 20.062 24.8984 20.0085 24.559C19.9495 24.1839 20.2051 23.8317 20.5797 23.773L28.7071 22.4885C29.0826 22.4294 29.4325 22.6852 29.4915 23.0608C29.5505 23.4359 29.2949 23.7881 28.9207 23.8473L20.7929 25.1313C20.7567 25.1373 20.721 25.14 20.6854 25.14" fill="#00807B"/>
</svg>
