<svg aria-hidden="true" fill="none" viewBox="0 0 81 80" xmlns="http://www.w3.org/2000/svg">
  <path clip-rule="evenodd"
        d="M63.1228 34.768C63.1228 33.6684 62.2281 32.7783 61.1247 32.7783C60.0213 32.7783 59.1274 33.6684 59.1274 34.768C59.1274 35.8667 60.0213 36.7568 61.1247 36.7568C62.2281 36.7568 63.1228 35.8667 63.1228 34.768Z"
        fill="#00807B" fill-rule="evenodd"></path>
  <path clip-rule="evenodd"
        d="M76.9889 33.781H72.6998C71.3472 29.8638 68.8593 26.3337 65.597 23.7071L65.6012 12.3157C65.6012 11.6218 65.0356 11.0586 64.3387 11.0586C59.1936 11.0586 54.6326 14.1327 52.6925 18.8043C52.3197 18.7842 51.9594 18.7749 51.6076 18.7749H49.1415C48.4438 18.7749 47.879 19.3381 47.879 20.0321C47.879 20.726 48.4438 21.2892 49.1415 21.2892H51.6076C52.1774 21.2892 52.775 21.3186 53.434 21.3781C54.0182 21.43 54.5669 21.073 54.7496 20.514C55.9708 16.766 59.2298 14.1285 63.0762 13.65L63.077 23.5596L63.0476 24.2443C63.029 24.6559 63.2151 25.0514 63.545 25.3003C66.8948 27.8339 69.3887 31.4184 70.5679 35.3944C70.7261 35.9291 71.2185 36.2953 71.7782 36.2953H76.9889C77.4283 36.2953 77.786 36.6515 77.786 37.089V47.5928C77.786 48.0312 77.4283 48.3874 76.9889 48.3874H70.7547C70.2598 48.3874 69.8104 48.6748 69.6058 49.1232C67.8005 53.0698 64.6737 56.3627 60.7986 58.3959C60.5419 58.5308 60.3399 58.7487 60.2263 59.0136L54.8127 71.6261C54.5476 72.0702 54.1141 72.118 53.9357 72.118C53.7581 72.118 53.3246 72.0702 53.0595 71.6261L48.6812 61.4264C48.4825 60.9646 48.0255 60.6638 47.5205 60.6638H32.687C32.1811 60.6638 31.7249 60.9646 31.5255 61.4264L27.1084 71.7174C26.8433 72.1608 26.4098 72.2094 26.2322 72.2094C26.0538 72.2102 25.6203 72.1608 25.3552 71.7174L19.7901 58.7512C19.6807 58.4965 19.4896 58.2853 19.2472 58.1495C13.013 54.663 9.14134 48.0823 9.14134 40.9769C9.14134 33.1986 13.7562 26.1317 20.8977 22.973C21.5349 22.6914 21.8219 21.9488 21.5391 21.3144C21.2554 20.6799 20.5097 20.3925 19.8726 20.6749C13.9877 23.278 9.6354 28.2395 7.71219 34.1431C4.79245 33.771 2.525 31.2852 2.525 28.2773C2.525 27.5825 1.96024 27.0201 1.2625 27.0201C0.5656 27.0201 0 27.5825 0 28.2773C0 32.451 3.06451 35.9173 7.06832 36.5853C6.77878 38.0151 6.61634 39.4826 6.61634 40.9769C6.61634 48.8466 10.8264 56.1439 17.6338 60.1266L23.06 72.7692C23.076 72.8044 23.0928 72.8396 23.1113 72.874C23.7333 74.0155 24.9285 74.7245 26.2322 74.7237C27.536 74.7237 28.732 74.0146 29.3523 72.874C29.3708 72.8396 29.3876 72.8044 29.4036 72.7692L33.5202 63.1781H46.6872L50.7643 72.6779C50.7803 72.7131 50.7971 72.7483 50.8156 72.7826C51.4368 73.9233 52.6328 74.6323 53.9357 74.6323C55.2394 74.6323 56.4354 73.9233 57.0566 72.7826C57.0751 72.7483 57.0919 72.7131 57.1071 72.6779L62.3751 60.4065C66.3174 58.2333 69.5402 54.8901 71.5501 50.9016H76.9889C78.8212 50.9016 80.311 49.4174 80.311 47.5928V37.089C80.311 35.2653 78.8212 33.781 76.9889 33.781Z"
        fill="#00807B" fill-rule="evenodd"></path>
  <path clip-rule="evenodd"
        d="M44.5983 31.9306C44.2659 31.9306 43.9343 31.8016 43.6868 31.5434C43.2045 31.0414 43.2214 30.2461 43.7247 29.7658C46.3271 27.2825 47.7596 23.9394 47.7596 20.3523C47.7596 13.1623 41.8865 7.31409 34.6667 7.31409C27.4469 7.31409 21.5737 13.1623 21.5737 20.3523C21.5737 23.8355 22.9355 27.1091 25.4083 29.5714C25.9016 30.0617 25.9016 30.8579 25.4083 31.349C24.9151 31.8401 24.1164 31.8401 23.6232 31.349C20.6731 28.4123 19.0487 24.5076 19.0487 20.3523C19.0487 11.7761 26.0547 4.7998 34.6667 4.7998C43.2786 4.7998 50.2846 11.7761 50.2846 20.3523C50.2846 24.6308 48.5761 28.6193 45.472 31.5811C45.2271 31.8141 44.9131 31.9306 44.5983 31.9306Z"
        fill="#00B1AC" fill-rule="evenodd"></path>
  <path clip-rule="evenodd"
        d="M35.8156 24.6897C36.7793 24.4869 37.3356 23.9698 37.3356 23.1945C37.3356 22.3271 36.7052 21.8653 35.8156 21.515V24.6897ZM34.1844 18.7284V15.8302C33.3133 15.9769 32.7763 16.4211 32.7763 17.1226C32.7763 17.9338 33.3503 18.3956 34.1844 18.7284ZM35.8156 19.2815C37.7068 19.8531 39.7824 20.5546 39.7638 23.0831C39.7638 25.1322 38.1697 26.4799 35.8156 26.7565V29.3587H34.1844V26.7749C32.4052 26.6274 30.7555 25.8522 29.5696 24.7635L30.5148 22.8803C31.6266 23.896 32.9615 24.5238 34.1844 24.7073V21.0163C32.3311 20.4624 30.3288 19.7802 30.3288 17.3254C30.3288 15.35 31.8497 14.04 34.1844 13.7811V11.3447H35.8156V13.7626C37.2245 13.8917 38.5779 14.3719 39.5972 15.055L38.689 16.9742C37.6875 16.3649 36.6682 16.0146 35.8156 15.8671V19.2815Z"
        fill="#00807B" fill-rule="evenodd"></path>
  <path clip-rule="evenodd"
        d="M49.1417 31.9283H20.3112C19.6135 31.9283 19.0487 31.3651 19.0487 30.6712C19.0487 29.9773 19.6135 29.4141 20.3112 29.4141H49.1417C49.8394 29.4141 50.4042 29.9773 50.4042 30.6712C50.4042 31.3651 49.8394 31.9283 49.1417 31.9283Z"
        fill="#00807B" fill-rule="evenodd"></path>
</svg>
