<svg width="40" height="40" viewBox="0 0 40 40" fill="none" xmlns="http://www.w3.org/2000/svg">
<path fill-rule="evenodd" clip-rule="evenodd" d="M20.2103 10.1976C19.1006 10.1976 18.198 11.1006 18.198 12.2102C18.198 13.3194 19.1006 14.2225 20.2103 14.2225C21.32 14.2225 22.2227 13.3194 22.2227 12.2102C22.2227 11.1006 21.32 10.1976 20.2103 10.1976M20.2102 15.44C18.4292 15.44 16.9802 13.9911 16.9802 12.2102C16.9802 10.4289 18.4292 8.98002 20.2102 8.98002C21.9912 8.98002 23.4402 10.4289 23.4402 12.2102C23.4402 13.9911 21.9912 15.44 20.2102 15.44" fill="#00B1AC"/>
<path d="M20.2103 9.9476C18.9625 9.9476 17.948 10.9626 17.948 12.2102H18.448C18.448 11.2386 19.2388 10.4476 20.2103 10.4476V9.9476ZM17.948 12.2102C17.948 13.4575 18.9626 14.4725 20.2103 14.4725V13.9725C19.2387 13.9725 18.448 13.1814 18.448 12.2102H17.948ZM20.2103 14.4725C21.4581 14.4725 22.4727 13.4575 22.4727 12.2102H21.9727C21.9727 13.1814 21.1819 13.9725 20.2103 13.9725V14.4725ZM22.4727 12.2102C22.4727 10.9626 21.4581 9.9476 20.2103 9.9476V10.4476C21.1819 10.4476 21.9727 11.2386 21.9727 12.2102H22.4727ZM20.2102 15.19C18.5673 15.19 17.2302 13.853 17.2302 12.2102H16.7302C16.7302 14.1292 18.2912 15.69 20.2102 15.69V15.19ZM17.2302 12.2102C17.2302 10.567 18.5673 9.23002 20.2102 9.23002V8.73002C18.2911 8.73002 16.7302 10.2909 16.7302 12.2102H17.2302ZM20.2102 9.23002C21.8532 9.23002 23.1902 10.567 23.1902 12.2102H23.6902C23.6902 10.2909 22.1293 8.73002 20.2102 8.73002V9.23002ZM23.1902 12.2102C23.1902 13.853 21.8532 15.19 20.2102 15.19V15.69C22.1293 15.69 23.6902 14.1292 23.6902 12.2102H23.1902Z" fill="#00B1AC"/>
<path fill-rule="evenodd" clip-rule="evenodd" d="M26.8773 22.5607V15.7788C27.9602 16.7408 29.6691 18.8338 29.8362 22.5607H26.8773ZM25.6861 25.5209H24.3134H15.8175H14.3539V12.5773C14.3539 9.92348 15.1538 7.38041 16.6312 5.2333C17.6823 5.74399 18.843 6.01287 20.02 6.01287C21.1974 6.01287 22.3576 5.74399 23.4084 5.2329C24.8862 7.38001 25.6861 9.92348 25.6861 12.5773V25.5209ZM24.2347 28.6849H15.8963L16.3024 26.7159H23.8286L24.2347 28.6849ZM18.8008 2.71767C19.1223 2.38067 19.5554 2.19504 20.0202 2.19504V2.19504C20.4847 2.19504 20.9177 2.38067 21.2393 2.71767L22.0999 3.61834C22.2967 3.82509 22.4837 4.039 22.6659 4.2565C21.0023 4.97871 19.0382 4.97871 17.3745 4.2565C17.5563 4.039 17.7433 3.82509 17.9406 3.61834L18.8008 2.71767ZM26.8772 14.2675V12.5773C26.8772 9.48247 25.8812 6.52432 24.0505 4.08482C24.0453 4.07805 24.0405 4.07009 24.0346 4.06331C23.7023 3.62234 23.3459 3.19611 22.9596 2.79138L22.099 1.89031C21.5512 1.31629 20.8129 1 20.0202 1V1C19.2275 1 18.4892 1.31629 17.941 1.89031L17.0808 2.79138C16.6937 3.1969 16.3369 3.62353 16.0038 4.0657C16.0022 4.0677 16.0007 4.07048 15.9987 4.07248C14.1624 6.51436 13.1632 9.47689 13.1632 12.5773V14.2675C12.1439 14.9566 9 17.5391 9 23.1582C9 23.4881 9.26675 23.7558 9.59543 23.7558H11.7739C12.1026 23.7558 12.3693 23.4881 12.3693 23.1582C12.3693 22.8284 12.1026 22.5607 11.7739 22.5607H10.2044C10.3715 18.8337 12.0804 16.7408 13.1632 15.7788V26.1184C13.1632 26.4482 13.4296 26.7159 13.7587 26.7159H15.0865L14.5819 29.1614C14.5458 29.3374 14.5903 29.5207 14.7034 29.6597C14.8165 29.7991 14.986 29.88 15.1651 29.88H24.9658C25.1449 29.88 25.3144 29.7991 25.4275 29.6597C25.5406 29.5207 25.5851 29.3374 25.549 29.1614L25.0444 26.7159H26.2817C26.6108 26.7159 26.8772 26.4482 26.8772 26.1184V23.7558H30.4446C30.7736 23.7558 31.04 23.4881 31.04 23.1582C31.04 17.5391 27.8961 14.9566 26.8772 14.2675V14.2675Z" fill="#00807B"/>
<path d="M26.8773 22.5607H26.6273V22.8107H26.8773V22.5607ZM26.8773 15.7788L27.0434 15.5919L26.6273 15.2223V15.7788H26.8773ZM29.8362 22.5607V22.8107H30.0977L30.086 22.5495L29.8362 22.5607ZM25.6861 25.5209V25.7709H25.9361V25.5209H25.6861ZM14.3539 25.5209H14.1039V25.7709H14.3539V25.5209ZM16.6312 5.2333L16.7405 5.00844L16.5471 4.9145L16.4253 5.09158L16.6312 5.2333ZM23.4084 5.2329L23.6143 5.09116L23.4924 4.91403L23.299 5.00809L23.4084 5.2329ZM24.2347 28.6849V28.9349H24.5415L24.4795 28.6344L24.2347 28.6849ZM15.8963 28.6849L15.6514 28.6344L15.5895 28.9349H15.8963V28.6849ZM16.3024 26.7159V26.4659H16.0987L16.0575 26.6654L16.3024 26.7159ZM23.8286 26.7159L24.0734 26.6654L24.0323 26.4659H23.8286V26.7159ZM18.8008 2.71767L18.9816 2.89034L18.9817 2.89025L18.8008 2.71767ZM21.2393 2.71767L21.0584 2.89025L21.0585 2.89038L21.2393 2.71767ZM22.0999 3.61834L22.2809 3.44593L22.2806 3.44563L22.0999 3.61834ZM22.6659 4.2565L22.7655 4.48582L23.0725 4.35254L22.8576 4.09596L22.6659 4.2565ZM17.3745 4.2565L17.1827 4.09617L16.9683 4.35269L17.275 4.48582L17.3745 4.2565ZM17.9406 3.61834L17.7598 3.44568L17.7597 3.44575L17.9406 3.61834ZM24.0505 4.08482L24.2504 3.93476L24.2493 3.9333L24.0505 4.08482ZM24.0346 4.06331L23.8349 4.21375L23.8406 4.2213L23.8468 4.22839L24.0346 4.06331ZM22.9596 2.79138L23.1405 2.61878L23.1404 2.61871L22.9596 2.79138ZM22.099 1.89031L21.9182 2.06291L21.9182 2.06298L22.099 1.89031ZM17.941 1.89031L17.7602 1.71765L17.7601 1.71768L17.941 1.89031ZM17.0808 2.79138L16.8999 2.61875L16.8999 2.61878L17.0808 2.79138ZM16.0038 4.0657L16.1994 4.2216L16.2035 4.21611L16.0038 4.0657ZM15.9987 4.07248L15.8216 3.89601L15.8093 3.90833L15.7989 3.92222L15.9987 4.07248ZM13.1632 14.2675L13.3033 14.4746L13.4132 14.4002V14.2675H13.1632ZM10.2044 22.5607L9.95461 22.5495L9.94289 22.8107H10.2044V22.5607ZM13.1632 15.7788H13.4132V15.2223L12.9972 15.5919L13.1632 15.7788ZM15.0865 26.7159L15.3313 26.7664L15.3933 26.4659H15.0865V26.7159ZM14.5819 29.1614L14.3371 29.1109L14.337 29.1111L14.5819 29.1614ZM14.7034 29.6597L14.8975 29.5022L14.8973 29.5019L14.7034 29.6597ZM25.4275 29.6597L25.2336 29.5019L25.2334 29.5022L25.4275 29.6597ZM25.549 29.1614L25.7939 29.1111L25.7938 29.1109L25.549 29.1614ZM25.0444 26.7159V26.4659H24.7376L24.7996 26.7664L25.0444 26.7159ZM26.8772 23.7558V23.5058H26.6272V23.7558H26.8772ZM27.1273 22.5607V15.7788H26.6273V22.5607H27.1273ZM26.7113 15.9657C27.7549 16.8928 29.423 18.9261 29.5865 22.5719L30.086 22.5495C29.9152 18.7415 28.1655 16.5888 27.0434 15.5919L26.7113 15.9657ZM29.8362 22.3107H26.8773V22.8107H29.8362V22.3107ZM25.6861 25.2709H24.3134V25.7709H25.6861V25.2709ZM24.3134 25.2709H15.8175V25.7709H24.3134V25.2709ZM15.8175 25.2709H14.3539V25.7709H15.8175V25.2709ZM14.6039 25.5209V12.5773H14.1039V25.5209H14.6039ZM14.6039 12.5773C14.6039 9.97422 15.3883 7.48055 16.8372 5.37502L16.4253 5.09158C14.9192 7.28028 14.1039 9.87274 14.1039 12.5773H14.6039ZM16.522 5.45817C17.607 5.98534 18.8051 6.26287 20.02 6.26287V5.76287C18.881 5.76287 17.7577 5.50264 16.7405 5.00844L16.522 5.45817ZM20.02 6.26287C21.2353 6.26287 22.433 5.98534 23.5177 5.45772L23.299 5.00809C22.2823 5.50264 21.1594 5.76287 20.02 5.76287V6.26287ZM23.2024 5.37465C24.6517 7.48015 25.4361 9.97421 25.4361 12.5773H25.9361C25.9361 9.87274 25.1208 7.27987 23.6143 5.09116L23.2024 5.37465ZM25.4361 12.5773V25.5209H25.9361V12.5773H25.4361ZM24.2347 28.4349H15.8963V28.9349H24.2347V28.4349ZM16.1411 28.7354L16.5472 26.7664L16.0575 26.6654L15.6514 28.6344L16.1411 28.7354ZM16.3024 26.9659H23.8286V26.4659H16.3024V26.9659ZM23.5837 26.7664L23.9898 28.7354L24.4795 28.6344L24.0734 26.6654L23.5837 26.7664ZM18.9817 2.89025C19.2561 2.60257 19.6239 2.44504 20.0202 2.44504V1.94504C19.4869 1.94504 18.9885 2.15877 18.6199 2.5451L18.9817 2.89025ZM20.0202 2.44504C20.4161 2.44504 20.7839 2.60254 21.0584 2.89025L21.4201 2.5451C21.0516 2.15879 20.5532 1.94504 20.0202 1.94504V2.44504ZM21.0585 2.89038L21.9191 3.79105L22.2806 3.44563L21.42 2.54496L21.0585 2.89038ZM21.9188 3.79075C22.1109 3.99246 22.2942 4.20212 22.4743 4.41704L22.8576 4.09596C22.6732 3.87589 22.4826 3.65771 22.2809 3.44593L21.9188 3.79075ZM22.5664 4.02718C20.9662 4.72182 19.0742 4.72182 17.4741 4.02718L17.275 4.48582C19.0021 5.2356 21.0383 5.2356 22.7655 4.48582L22.5664 4.02718ZM17.5664 4.41684C17.7459 4.20206 17.9291 3.99253 18.1215 3.79093L17.7597 3.44575C17.5575 3.65765 17.3668 3.87594 17.1827 4.09617L17.5664 4.41684ZM18.1214 3.79101L18.9816 2.89034L18.62 2.54501L17.7598 3.44568L18.1214 3.79101ZM27.1272 14.2675V12.5773H26.6272V14.2675H27.1272ZM27.1272 12.5773C27.1272 9.42824 26.1136 6.41746 24.2504 3.93477L23.8505 4.23488C25.6488 6.63118 26.6272 9.5367 26.6272 12.5773H27.1272ZM24.2493 3.9333C24.2509 3.93544 24.2518 3.93676 24.2514 3.93606C24.2511 3.93574 24.2508 3.93533 24.2502 3.93434C24.2496 3.93352 24.2486 3.93213 24.2476 3.93068C24.244 3.92546 24.2348 3.91244 24.2223 3.89824L23.8468 4.22839C23.8433 4.22433 23.8407 4.22108 23.8394 4.21933C23.8381 4.21765 23.8375 4.21669 23.838 4.21746C23.8383 4.21785 23.8386 4.2183 23.8393 4.21931C23.8399 4.22016 23.8409 4.22157 23.8419 4.22305C23.844 4.22597 23.8474 4.23082 23.8516 4.23635L24.2493 3.9333ZM24.2342 3.91287C23.8969 3.46512 23.5342 3.03134 23.1405 2.61878L22.7788 2.96398C23.1575 3.36087 23.5078 3.77956 23.8349 4.21375L24.2342 3.91287ZM23.1404 2.61871L22.2798 1.71764L21.9182 2.06298L22.7788 2.96405L23.1404 2.61871ZM22.2799 1.71772C21.685 1.09433 20.8813 0.75 20.0202 0.75V1.25C20.7445 1.25 21.4175 1.53825 21.9182 2.06291L22.2799 1.71772ZM20.0202 0.75C19.159 0.75 18.3554 1.09434 17.7602 1.71765L18.1218 2.06297C18.6229 1.53824 19.2959 1.25 20.0202 1.25V0.75ZM17.7601 1.71768L16.8999 2.61875L17.2616 2.96401L18.1218 2.06294L17.7601 1.71768ZM16.8999 2.61878C16.5054 3.03213 16.1423 3.46631 15.8041 3.91529L16.2035 4.21611C16.5314 3.78076 16.8821 3.36168 17.2616 2.96399L16.8999 2.61878ZM15.8083 3.90986C15.8033 3.9162 15.7995 3.92152 15.7982 3.9234C15.7975 3.92444 15.7968 3.92543 15.7967 3.92553C15.7965 3.92587 15.7968 3.92547 15.7972 3.92492C15.7979 3.9239 15.8004 3.92034 15.804 3.9158C15.8076 3.91125 15.8135 3.90413 15.8216 3.89601L16.1758 4.24894C16.1848 4.23983 16.1917 4.23161 16.1962 4.22592C16.2007 4.22023 16.2041 4.21548 16.2056 4.21326C16.2065 4.21211 16.2071 4.21111 16.2073 4.21086C16.2077 4.21037 16.2074 4.21077 16.2071 4.21124C16.2065 4.21198 16.2036 4.2162 16.1993 4.22154L15.8083 3.90986ZM15.7989 3.92222C13.93 6.40734 12.9132 9.42258 12.9132 12.5773H13.4132C13.4132 9.53121 14.3947 6.62139 16.1985 4.22273L15.7989 3.92222ZM12.9132 12.5773V14.2675H13.4132V12.5773H12.9132ZM13.0232 14.0603C11.9616 14.7781 8.75 17.4285 8.75 23.1582H9.25C9.25 17.6497 12.3262 15.1351 13.3033 14.4746L13.0232 14.0603ZM8.75 23.1582C8.75 23.6253 9.12785 24.0058 9.59543 24.0058V23.5058C9.40565 23.5058 9.25 23.3508 9.25 23.1582H8.75ZM9.59543 24.0058H11.7739V23.5058H9.59543V24.0058ZM11.7739 24.0058C12.2415 24.0058 12.6193 23.6253 12.6193 23.1582H12.1193C12.1193 23.3508 11.9637 23.5058 11.7739 23.5058V24.0058ZM12.6193 23.1582C12.6193 22.6912 12.2415 22.3107 11.7739 22.3107V22.8107C11.9637 22.8107 12.1193 22.9656 12.1193 23.1582H12.6193ZM11.7739 22.3107H10.2044V22.8107H11.7739V22.3107ZM10.4541 22.5719C10.6176 18.926 12.2857 16.8928 13.3293 15.9657L12.9972 15.5919C11.875 16.5888 10.1254 18.7414 9.95461 22.5495L10.4541 22.5719ZM12.9132 15.7788V26.1184H13.4132V15.7788H12.9132ZM12.9132 26.1184C12.9132 26.5853 13.2906 26.9659 13.7587 26.9659V26.4659C13.5686 26.4659 13.4132 26.3111 13.4132 26.1184H12.9132ZM13.7587 26.9659H15.0865V26.4659H13.7587V26.9659ZM14.8416 26.6654L14.3371 29.1109L14.8268 29.2119L15.3313 26.7664L14.8416 26.6654ZM14.337 29.1111C14.286 29.3601 14.3487 29.6199 14.5095 29.8175L14.8973 29.5019C14.8319 29.4215 14.8057 29.3148 14.8268 29.2116L14.337 29.1111ZM14.5093 29.8172C14.6697 30.015 14.9105 30.13 15.1651 30.13V29.63C15.0616 29.63 14.9634 29.5833 14.8975 29.5022L14.5093 29.8172ZM15.1651 30.13H24.9658V29.63H15.1651V30.13ZM24.9658 30.13C25.2204 30.13 25.4612 30.015 25.6216 29.8172L25.2334 29.5022C25.1675 29.5833 25.0693 29.63 24.9658 29.63V30.13ZM25.6214 29.8175C25.7822 29.6199 25.8449 29.3601 25.7939 29.1111L25.3041 29.2116C25.3252 29.3148 25.299 29.4215 25.2336 29.5019L25.6214 29.8175ZM25.7938 29.1109L25.2893 26.6654L24.7996 26.7664L25.3041 29.2119L25.7938 29.1109ZM25.0444 26.9659H26.2817V26.4659H25.0444V26.9659ZM26.2817 26.9659C26.7498 26.9659 27.1272 26.5853 27.1272 26.1184H26.6272C26.6272 26.3111 26.4718 26.4659 26.2817 26.4659V26.9659ZM27.1272 26.1184V23.7558H26.6272V26.1184H27.1272ZM26.8772 24.0058H30.4446V23.5058H26.8772V24.0058ZM30.4446 24.0058C30.9127 24.0058 31.29 23.6252 31.29 23.1582H30.79C30.79 23.3509 30.6346 23.5058 30.4446 23.5058V24.0058ZM31.29 23.1582C31.29 17.4285 28.0784 14.7781 27.0172 14.0604L26.7371 14.4745C27.7138 15.1351 30.79 17.6497 30.79 23.1582H31.29Z" fill="#00807B"/>
<path fill-rule="evenodd" clip-rule="evenodd" d="M12.2762 35.96C12.1376 35.96 11.9978 35.9151 11.8827 35.8226C11.6207 35.6124 11.5845 35.237 11.8021 34.9835L14.3687 31.9955C14.5862 31.7424 14.9744 31.707 15.2372 31.9172C15.4991 32.1278 15.5353 32.5032 15.3178 32.7567L12.7511 35.7447C12.629 35.8865 12.4534 35.96 12.2762 35.96" fill="#00B1AC"/>
<path d="M12.2762 35.96C12.1376 35.96 11.9978 35.9151 11.8827 35.8226C11.6207 35.6124 11.5845 35.237 11.8021 34.9835L14.3687 31.9955C14.5862 31.7424 14.9744 31.707 15.2372 31.9172C15.4991 32.1278 15.5353 32.5032 15.3178 32.7567L12.7511 35.7447C12.629 35.8865 12.4534 35.96 12.2762 35.96" stroke="#00B1AC" stroke-width="0.5"/>
<path fill-rule="evenodd" clip-rule="evenodd" d="M16.0249 38.24C15.9616 38.24 15.8976 38.2288 15.8347 38.205C15.5406 38.0942 15.3881 37.753 15.4932 37.4432L17.0233 32.9352C17.1283 32.6254 17.4522 32.4641 17.7452 32.5749C18.0393 32.6861 18.1918 33.0269 18.0868 33.3367L16.5567 37.8452C16.4742 38.0882 16.2569 38.24 16.0249 38.24" fill="#00B1AC"/>
<path d="M16.0249 38.24C15.9616 38.24 15.8976 38.2288 15.8347 38.205C15.5406 38.0942 15.3881 37.753 15.4932 37.4432L17.0233 32.9352C17.1283 32.6254 17.4522 32.4641 17.7452 32.5749C18.0393 32.6861 18.1918 33.0269 18.0868 33.3367L16.5567 37.8452C16.4742 38.0882 16.2569 38.24 16.0249 38.24" stroke="#00B1AC" stroke-width="0.5"/>
<path fill-rule="evenodd" clip-rule="evenodd" d="M24.3223 38.24C24.0634 38.24 23.8193 38.09 23.7241 37.8474L21.9601 33.3506C21.8376 33.0386 22.0064 32.6929 22.3368 32.5774C22.6667 32.4623 23.034 32.6211 23.1561 32.9331L24.9205 37.4295C25.0425 37.7415 24.8737 38.0872 24.5438 38.2027C24.4707 38.2283 24.3958 38.24 24.3223 38.24" fill="#00B1AC"/>
<path d="M24.3223 38.24C24.0634 38.24 23.8193 38.09 23.7241 37.8474L21.9601 33.3506C21.8376 33.0386 22.0064 32.6929 22.3368 32.5774C22.6667 32.4623 23.034 32.6211 23.1561 32.9331L24.9205 37.4295C25.0425 37.7415 24.8737 38.0872 24.5438 38.2027C24.4707 38.2283 24.3958 38.24 24.3223 38.24" stroke="#00B1AC" stroke-width="0.5"/>
<path fill-rule="evenodd" clip-rule="evenodd" d="M27.7644 35.96C27.5895 35.96 27.4163 35.8875 27.2943 35.7469L24.726 32.7756C24.506 32.521 24.538 32.1395 24.7975 31.9235C25.0565 31.7076 25.4457 31.739 25.6653 31.9932L28.2337 34.9645C28.4537 35.2191 28.4217 35.6006 28.1622 35.8166C28.0464 35.9129 27.9052 35.96 27.7644 35.96" fill="#00B1AC"/>
<path d="M27.7644 35.96C27.5895 35.96 27.4163 35.8875 27.2943 35.7469L24.726 32.7756C24.506 32.521 24.538 32.1395 24.7975 31.9235C25.0565 31.7076 25.4457 31.739 25.6653 31.9932L28.2337 34.9645C28.4537 35.2191 28.4217 35.6006 28.1622 35.8166C28.0464 35.9129 27.9052 35.96 27.7644 35.96" stroke="#00B1AC" stroke-width="0.5"/>
<path fill-rule="evenodd" clip-rule="evenodd" d="M20.2208 39C19.9127 39 19.6629 38.7259 19.6614 38.3865L19.6401 33.1591C19.6387 32.8189 19.8881 32.5416 20.1973 32.54H20.1995C20.5075 32.54 20.7574 32.814 20.7589 33.1538L20.7801 38.3808C20.7816 38.721 20.5321 38.9983 20.2234 39H20.2208Z" fill="#00B1AC" stroke="#00B1AC" stroke-width="0.5"/>
</svg>
