<svg width="90" height="90" viewBox="0 0 90 90" fill="currentColor" xmlns="http://www.w3.org/2000/svg" aria-hidden="true">
  <g id="speed">
    <g id="clock_dark">
      <g id="clockface">
        <mask id="mask0" mask-type="alpha" maskUnits="userSpaceOnUse" x="8" y="1" width="79" height="89">
          <path id="Clip 2" fill-rule="evenodd" clip-rule="evenodd"
                d="M8.70032 1.12476H86.6977V89.1683H8.70032V1.12476Z" fill="white"></path>
        </mask>
        <g mask="url(#mask0)">
          <path id="Fill 1" fill-rule="evenodd" clip-rule="evenodd"
                d="M49.3859 11.2115V4.49976H57.5433C58.4748 4.49976 59.2308 3.74488 59.2308 2.81226C59.2308 1.88076 58.4748 1.12476 57.5433 1.12476H37.8547C36.9232 1.12476 36.1672 1.88076 36.1672 2.81226C36.1672 3.74488 36.9232 4.49976 37.8547 4.49976H46.0109V11.2115C25.2873 12.0991 8.70032 29.2306 8.70032 50.1691C8.70032 54.9931 9.56882 59.7001 11.2844 64.1608C11.6197 65.0315 12.5996 65.4658 13.4647 65.1305C14.3354 64.7964 14.7686 63.8199 14.4356 62.9503C12.8696 58.8766 12.0753 54.5769 12.0753 50.1691C12.0753 30.5266 28.0537 14.546 47.6939 14.5438C47.6962 14.5438 47.6973 14.5438 47.6984 14.5438C47.6996 14.5438 47.7007 14.5438 47.7029 14.5438C67.3443 14.546 83.3227 30.5266 83.3227 50.1691C83.3227 69.8128 67.3421 85.7934 47.6984 85.7934C46.7669 85.7934 46.0109 86.5483 46.0109 87.4809C46.0109 88.4135 46.7669 89.1684 47.6984 89.1684C69.2028 89.1684 86.6977 71.6735 86.6977 50.1691C86.6977 29.2306 70.1107 12.0991 49.3859 11.2115Z"
                class="icon-accent-fill"></path>
        </g>
      </g>
      <path id="Fill 4" fill-rule="evenodd" clip-rule="evenodd"
            d="M8.61019 24.6664C8.17819 24.6664 7.74619 24.5022 7.41657 24.1726C6.75844 23.5133 6.75844 22.4446 7.41657 21.7853L16.8058 12.395C17.4651 11.7357 18.5327 11.7357 19.1919 12.395C19.8512 13.0542 19.8512 14.1218 19.1919 14.7811L9.80382 24.1726C9.47419 24.5022 9.04219 24.6664 8.61019 24.6664Z"
            class="icon-accent-fill"></path>
      <path id="Fill 6" fill-rule="evenodd" clip-rule="evenodd"
            d="M86.9626 24.6669C86.5306 24.6669 86.0986 24.5027 85.7689 24.1731L76.3797 14.7816C75.7204 14.1223 75.7204 13.0547 76.3797 12.3954C77.0389 11.7362 78.1066 11.7362 78.7658 12.3954L88.1562 21.7858C88.8143 22.4451 88.8143 23.5138 88.1562 24.1731C87.8266 24.5027 87.3946 24.6669 86.9626 24.6669Z"
            class="icon-accent-fill"></path>
      <path id="Fill 16" fill-rule="evenodd" clip-rule="evenodd"
            d="M47.6985 53.577C46.767 53.577 46.011 52.8221 46.011 51.8895V31.7711C46.011 30.8396 46.767 30.0836 47.6985 30.0836C48.63 30.0836 49.386 30.8396 49.386 31.7711V51.8895C49.386 52.8221 48.63 53.577 47.6985 53.577Z"
            class="icon-accent-fill"></path>
      <path id="Fill 18" fill-rule="evenodd" clip-rule="evenodd" d="M47.6985 51.8895L61.0264 56.8868L47.6985 51.8895Z"
            fill="white"></path>
      <path id="Fill 20" fill-rule="evenodd" clip-rule="evenodd"
            d="M61.0259 58.5747C60.829 58.5747 60.6276 58.5398 60.4341 58.4667L47.1062 53.4694C46.2332 53.142 45.7911 52.17 46.1185 51.297C46.4458 50.424 47.4201 49.9785 48.2908 50.3093L61.6176 55.3065C62.4917 55.6339 62.9327 56.6059 62.6054 57.4789C62.3522 58.1562 61.7087 58.5747 61.0259 58.5747Z"
            class="icon-accent-fill"></path>
    </g>
    <g id="lines_med">
      <path id="Fill 8" fill-rule="evenodd" clip-rule="evenodd"
            d="M39.8169 80.7825H8.73767C7.80617 80.7825 7.05017 80.0276 7.05017 79.095C7.05017 78.1623 7.80617 77.4075 8.73767 77.4075H39.8169C40.7484 77.4075 41.5044 78.1623 41.5044 79.095C41.5044 80.0276 40.7484 80.7825 39.8169 80.7825Z"
            class="icon-primary-fill"></path>
      <path id="Fill 10" fill-rule="evenodd" clip-rule="evenodd"
            d="M47.6985 89.1685H16.6204C15.6889 89.1685 14.9329 88.4136 14.9329 87.481C14.9329 86.5483 15.6889 85.7935 16.6204 85.7935H47.6985C48.63 85.7935 49.386 86.5483 49.386 87.481C49.386 88.4136 48.63 89.1685 47.6985 89.1685Z"
            class="icon-primary-fill"></path>
      <path id="Fill 12" fill-rule="evenodd" clip-rule="evenodd"
            d="M33.6668 72.3972H2.58752C1.65602 72.3972 0.900024 71.6423 0.900024 70.7097C0.900024 69.7771 1.65602 69.0222 2.58752 69.0222H33.6668C34.5983 69.0222 35.3543 69.7771 35.3543 70.7097C35.3543 71.6423 34.5983 72.3972 33.6668 72.3972Z"
            class="icon-primary-fill"></path>
    </g>
  </g>
</svg>
