<svg aria-hidden="true" fill="none" height="81" viewBox="0 0 80 81" width="80" xmlns="http://www.w3.org/2000/svg">
  <path clip-rule="evenodd"
        d="M60.3828 28.4464C60.397 28.7638 60.4508 29.0613 60.5407 29.3391C60.6307 29.6191 60.7744 29.8562 60.9697 30.0517C61.166 30.2482 61.4435 30.3459 61.8055 30.3459C62.1511 30.3459 62.4264 30.2482 62.6305 30.0517C62.8334 29.8562 62.9837 29.6191 63.0813 29.3391C63.1789 29.0613 63.2393 28.767 63.2634 28.4585C63.2853 28.1489 63.2963 27.8744 63.2963 27.6339C63.2963 27.4067 63.2853 27.1399 63.2634 26.8291C63.2393 26.5217 63.1844 26.2274 63.0923 25.9486C63.0023 25.6697 62.863 25.4292 62.6754 25.2239C62.4878 25.0219 62.2268 24.9198 61.8955 24.9198C61.5357 24.9198 61.2516 25.0098 61.0475 25.191C60.8457 25.371 60.691 25.5983 60.5846 25.8695C60.4804 26.1407 60.4157 26.4339 60.3938 26.7512C60.3718 27.0674 60.3608 27.3551 60.3608 27.6098C60.3608 27.8513 60.3674 28.1302 60.3828 28.4464ZM58.281 25.8695C58.4324 25.3425 58.666 24.8824 58.982 24.4894C59.2979 24.0985 59.6972 23.7899 60.1787 23.5638C60.6603 23.3365 61.234 23.2234 61.8955 23.2234C62.603 23.2234 63.1921 23.342 63.6583 23.5747C64.1234 23.8086 64.504 24.1248 64.798 24.5245C65.092 24.9241 65.2982 25.3952 65.42 25.9376C65.5407 26.48 65.5999 27.0597 65.5999 27.6789C65.5999 28.296 65.5242 28.8691 65.3761 29.3962C65.2247 29.9243 64.9955 30.3843 64.6861 30.7763C64.3779 31.1683 63.9819 31.4735 63.5003 31.6909C63.0166 31.9094 62.4451 32.0192 61.7836 32.0192C61.0903 32.0192 60.5056 31.9061 60.0318 31.6799C59.5579 31.4538 59.1728 31.1408 58.881 30.7423C58.586 30.3426 58.3753 29.8716 58.2481 29.3292C58.1198 28.7868 58.055 28.206 58.055 27.5878C58.055 26.9697 58.1307 26.3976 58.281 25.8695ZM61.0234 16.6499L52.6481 31.7667C52.5001 32.0346 52.2181 32.2004 51.9132 32.2004H51.8737C51.232 32.2004 50.8272 31.5098 51.1387 30.9487L59.5546 15.833C59.7027 15.5662 59.9835 15.4004 60.2884 15.4004C60.9291 15.4004 61.3338 16.0888 61.0234 16.6499ZM48.7255 20.9188C48.7408 21.2196 48.7935 21.5029 48.8834 21.7653C48.9745 22.0288 49.1171 22.2517 49.3145 22.4318C49.5087 22.614 49.7884 22.7041 50.1482 22.7041C50.4959 22.7041 50.7702 22.614 50.9742 22.4318C51.1782 22.2517 51.3274 22.0288 51.4261 21.7653C51.5238 21.5029 51.5841 21.2229 51.6071 20.9287C51.6291 20.6344 51.639 20.3687 51.639 20.1271C51.639 19.901 51.6291 19.6254 51.6071 19.3004C51.5841 18.9765 51.5271 18.6646 51.4371 18.3627C51.3472 18.0608 51.2079 17.806 51.0181 17.5941C50.8305 17.3833 50.5716 17.2768 50.2403 17.2768C49.8783 17.2768 49.5953 17.3756 49.3924 17.5711C49.1884 17.7676 49.0348 18.0092 48.9295 18.2946C48.8231 18.5812 48.7606 18.8908 48.7364 19.2213C48.7145 19.5529 48.7035 19.8483 48.7035 20.103C48.7035 20.3445 48.7112 20.6157 48.7255 20.9188ZM46.6248 18.3166C46.7751 17.7753 47.0087 17.301 47.3246 16.8936C47.6406 16.4852 48.0399 16.1657 48.5236 15.9329C49.0052 15.699 49.5767 15.5815 50.2403 15.5815C50.9479 15.5815 51.5347 15.7023 52.001 15.9428C52.4683 16.1843 52.8489 16.5126 53.1429 16.9266C53.4358 17.3416 53.6431 17.828 53.7627 18.3847C53.8844 18.9424 53.9448 19.5309 53.9448 20.148C53.9448 20.7672 53.8702 21.3349 53.7188 21.8564C53.5685 22.3769 53.3381 22.8248 53.0288 23.2014C52.7206 23.578 52.3257 23.8723 51.843 24.082C51.3614 24.295 50.7899 24.3993 50.1263 24.3993C49.4341 24.3993 48.8505 24.2906 48.3766 24.0721C47.9027 23.8536 47.5177 23.5517 47.2237 23.1674C46.9297 22.7831 46.7202 22.3242 46.5919 21.7884C46.4624 21.2525 46.3999 20.6772 46.3999 20.058C46.3999 19.4409 46.4734 18.8601 46.6248 18.3166Z"
        fill="#00B1AC" fill-rule="evenodd"></path>
  <path clip-rule="evenodd"
        d="M76.6029 41.866C76.6029 43.1566 75.5442 44.2077 74.2442 44.2077H47.7255V39.3321C47.7255 36.1821 45.1426 33.619 41.9698 33.619H35.6716V5.91445C35.6716 4.62276 36.7303 3.57276 38.0303 3.57276H74.2442C75.5442 3.57276 76.6029 4.62276 76.6029 5.91445V41.866ZM44.3284 75.2859C44.3284 76.5765 43.2697 77.6276 41.9697 77.6276H5.75578C4.4547 77.6276 3.39708 76.5765 3.39708 75.2859V39.3321C3.39708 38.0415 4.4547 36.9915 5.75578 36.9915H41.9697C43.2697 36.9915 44.3284 38.0415 44.3284 39.3321V75.2859ZM74.2442 0.200195H38.0303C34.8563 0.200195 32.2745 2.76335 32.2745 5.91445V33.619H5.75578C2.58178 33.619 0 36.1821 0 39.3321V75.2859C0 78.4359 2.58178 81.0002 5.75578 81.0002H41.9697C45.1426 81.0002 47.7255 78.4359 47.7255 75.2859V47.5803H74.2442C77.4182 47.5803 80 45.0171 80 41.866V5.91445C80 2.76335 77.4182 0.200195 74.2442 0.200195Z"
        fill="#00807B" fill-rule="evenodd"></path>
  <path clip-rule="evenodd"
        d="M24.4625 62.216C25.5212 61.9906 26.1319 61.4168 26.1319 60.556C26.1319 59.593 25.4403 59.0807 24.4625 58.6915V62.216ZM22.6707 55.597V52.3803C21.7136 52.5441 21.1225 53.0355 21.1225 53.8149C21.1225 54.7164 21.754 55.2298 22.6707 55.597ZM24.4625 56.2126C26.5394 56.8469 28.8207 57.6263 28.8 60.4329C28.8 62.7074 27.0486 64.2047 24.4625 64.5114V67.4004H22.6707V64.5312C20.715 64.3674 18.9035 63.5077 17.6001 62.2984L18.638 60.2075C19.8606 61.3343 21.3257 62.0313 22.6707 62.2369V58.1386C20.6341 57.523 18.4348 56.7655 18.4348 54.0403C18.4348 51.8472 20.1043 50.3928 22.6707 50.1058V47.4004H24.4625V50.086C26.0106 50.229 27.4965 50.7621 28.6175 51.5207L27.6189 53.6511C26.5198 52.9751 25.3988 52.5848 24.4625 52.4221V56.2126Z"
        fill="#00B1AC" fill-rule="evenodd"></path>
</svg>
