<svg width="40" height="40" viewBox="0 0 40 40" fill="none" xmlns="http://www.w3.org/2000/svg">
<path fill-rule="evenodd" clip-rule="evenodd" d="M16.5477 5.15321C13.6607 5.82722 11.0699 7.29911 9.04055 9.41422L12.1327 11.205L4.57084 15.4441L4.56742 15.128C4.47509 15.3736 4.37865 15.6165 4.29862 15.867C4.26306 16.0011 4.23638 16.138 4.20424 16.2728L5.15905 16.4356L4.98943 17.4326C4.87452 18.1073 4.80476 18.7916 4.78287 19.467L4.74867 20.4784L3.77539 20.4462C3.79181 21.0388 3.84379 21.6348 3.92723 22.2329L4.87999 22.0399L5.08108 23.0321C5.21582 23.6993 5.39639 24.363 5.61867 25.0056L5.9504 25.9622L5.04414 26.2763C5.27601 26.8319 5.53318 27.3711 5.82044 27.8898L6.63436 27.3684L7.18016 28.221C7.54677 28.7944 7.9551 29.346 8.39557 29.8626L8.94411 30.5072C8.19927 29.192 7.62201 27.7529 7.26156 26.2065C6.3854 22.4532 6.88948 18.702 8.43797 15.479L14.7811 11.9228L12.2073 10.4324C14.1805 8.65125 16.6175 7.32854 19.3882 6.68052C22.3348 5.99282 25.2792 6.15842 27.9679 7.01035C24.5248 4.89934 20.4737 4.23696 16.5477 5.15321" fill="white"/>
<path fill-rule="evenodd" clip-rule="evenodd" d="M20.3979 18.9959C18.8781 18.4813 17.9705 17.8121 17.9705 17.2051C17.9705 16.8308 18.1641 16.4729 18.517 16.1978C18.872 15.9228 19.3685 15.7702 19.9144 15.7702C20.8151 15.7702 21.6215 16.1773 21.876 16.7596C22.0941 17.2626 22.6482 17.5999 23.2528 17.5999C23.4265 17.5999 23.5982 17.5726 23.7617 17.5185C24.131 17.3987 24.4278 17.1572 24.5954 16.8397C24.7691 16.5071 24.7814 16.1363 24.6323 15.7934C24.1159 14.6124 22.9402 13.6749 21.4861 13.2869C21.3986 13.2643 21.352 13.2068 21.352 13.1644V12.9571C21.352 12.227 20.6879 11.6337 19.8719 11.6337C19.0553 11.6337 18.3898 12.227 18.3898 12.9571V13.2315C18.3898 13.2794 18.3378 13.33 18.2653 13.3519C17.6108 13.5517 17.039 13.8398 16.567 14.2079C15.5623 14.9935 15.0083 16.0576 15.0083 17.2051C15.0083 18.2486 15.5719 20.1906 19.3446 21.4675C20.8657 21.9834 21.7741 22.6527 21.7741 23.2582C21.7741 23.6408 21.5901 23.9795 21.2289 24.2648C20.876 24.5413 20.3808 24.6932 19.835 24.6932C18.9329 24.6932 18.1244 24.2854 17.8666 23.7017C17.6463 23.2008 17.0923 22.8627 16.4877 22.8627C16.3174 22.8627 16.1464 22.8901 15.9802 22.9442C15.5862 23.0721 15.2709 23.3451 15.1143 23.6941C14.9734 24.0089 14.9713 24.3558 15.1102 24.6706C15.6279 25.8496 16.8044 26.7857 18.2551 27.1751C18.3351 27.1963 18.3898 27.2476 18.3898 27.2989V27.5069C18.3898 28.2364 19.0553 28.829 19.8719 28.829C20.6879 28.829 21.352 28.2364 21.352 27.5069V27.2325C21.352 27.184 21.404 27.134 21.4793 27.1107C22.1324 26.9123 22.7042 26.6242 23.1762 26.2561C24.1809 25.4726 24.7349 24.4072 24.7349 23.2582C24.7349 22.2147 24.1713 20.2727 20.3979 18.9959" fill="white"/>
<path fill-rule="evenodd" clip-rule="evenodd" d="M20.3979 18.9959C18.8781 18.4813 17.9705 17.8121 17.9705 17.2051C17.9705 16.8308 18.1641 16.4729 18.517 16.1978C18.872 15.9228 19.3685 15.7702 19.9144 15.7702C20.8151 15.7702 21.6215 16.1773 21.876 16.7596C22.0941 17.2626 22.6482 17.5999 23.2528 17.5999C23.4265 17.5999 23.5982 17.5726 23.7617 17.5185C24.131 17.3987 24.4278 17.1572 24.5954 16.8397C24.7691 16.5071 24.7814 16.1363 24.6323 15.7934C24.1159 14.6124 22.9402 13.6749 21.4861 13.2869C21.3986 13.2643 21.352 13.2068 21.352 13.1644V12.9571C21.352 12.227 20.6879 11.6337 19.8719 11.6337C19.0553 11.6337 18.3898 12.227 18.3898 12.9571V13.2315C18.3898 13.2794 18.3378 13.33 18.2653 13.3519C17.6108 13.5517 17.039 13.8398 16.567 14.2079C15.5623 14.9935 15.0083 16.0576 15.0083 17.2051C15.0083 18.2486 15.5719 20.1906 19.3446 21.4675C20.8657 21.9834 21.7741 22.6527 21.7741 23.2582C21.7741 23.6408 21.5901 23.9795 21.2289 24.2648C20.876 24.5413 20.3808 24.6932 19.835 24.6932C18.9329 24.6932 18.1244 24.2854 17.8666 23.7017C17.6463 23.2008 17.0923 22.8627 16.4877 22.8627C16.3174 22.8627 16.1464 22.8901 15.9802 22.9442C15.5862 23.0721 15.2709 23.3451 15.1143 23.6941C14.9734 24.0089 14.9713 24.3558 15.1102 24.6706C15.6279 25.8496 16.8044 26.7857 18.2551 27.1751C18.3351 27.1963 18.3898 27.2476 18.3898 27.2989V27.5069C18.3898 28.2364 19.0553 28.829 19.8719 28.829C20.6879 28.829 21.352 28.2364 21.352 27.5069V27.2325C21.352 27.184 21.404 27.134 21.4793 27.1107C22.1324 26.9123 22.7042 26.6242 23.1762 26.2561C24.1809 25.4726 24.7349 24.4072 24.7349 23.2582C24.7349 22.2147 24.1713 20.2727 20.3979 18.9959" fill="#00B1AC"/>
<path fill-rule="evenodd" clip-rule="evenodd" d="M36.819 16.0703C34.6557 6.79829 25.3572 1.01474 16.0881 3.18255C12.6532 3.98521 9.59931 5.77939 7.24852 8.37624L4.47778 6.77228L4.57149 15.4442L12.1327 11.2051L9.04119 9.41361C11.0705 7.29918 13.6614 5.82729 16.5477 5.15327C20.5044 4.2295 24.5891 4.90556 28.0499 7.05558C31.5108 9.20764 33.9259 12.5722 34.8499 16.5308C36.7541 24.6909 31.6886 32.8776 23.5522 34.821C22.9182 34.9715 22.2752 35.0851 21.6398 35.1535L20.6337 35.2603L20.8478 37.2727L21.8525 37.166C22.0871 37.1414 22.3217 37.1112 22.5563 37.0757C23.0119 37.0086 23.4694 36.9176 23.9236 36.8122C23.9284 36.8122 23.9325 36.8122 23.9373 36.8115C23.9489 36.8088 23.9591 36.8054 23.9708 36.8026C24.0255 36.7896 24.0809 36.7801 24.1349 36.7664L25.1178 36.5255L25.1089 36.4892C33.6838 33.8431 38.8901 24.9434 36.819 16.0703" fill="#00807B"/>
<path fill-rule="evenodd" clip-rule="evenodd" d="M8.39538 29.8629C7.95491 29.3462 7.54658 28.794 7.17998 28.2213L6.63417 27.368L4.93042 28.4594L5.47486 29.3113C5.88797 29.9559 6.35238 30.5827 6.85441 31.1746L7.50965 31.9451L9.05062 30.6334L8.39538 29.8629Z" fill="#00807B"/>
<path fill-rule="evenodd" clip-rule="evenodd" d="M5.61871 25.0054C5.39642 24.3636 5.21517 23.6991 5.08112 23.032L4.88003 22.0398L2.89722 22.4414L3.09762 23.4323C3.24809 24.1822 3.45328 24.9343 3.70703 25.6685L4.03739 26.6244L5.94975 25.9621L5.61871 25.0054Z" fill="#00807B"/>
<path fill-rule="evenodd" clip-rule="evenodd" d="M4.78261 19.467C4.80449 18.7916 4.87426 18.1073 4.98917 17.4326L5.15879 16.4356L3.16572 16.0955L2.99609 17.0925C2.86614 17.8535 2.78748 18.6288 2.76081 19.3993L2.72729 20.4113L4.74841 20.479L4.78261 19.467Z" fill="#00807B"/>
<path fill-rule="evenodd" clip-rule="evenodd" d="M16.0588 34.7223L15.0814 34.4589L14.5562 36.4139L15.5335 36.676C16.2804 36.8771 17.0451 37.0291 17.8077 37.1276L18.8104 37.2556L19.0689 35.2492L18.0663 35.1199C17.3946 35.0337 16.7195 34.9003 16.0588 34.7223" fill="#00807B"/>
<path fill-rule="evenodd" clip-rule="evenodd" d="M11.0117 32.2973L10.195 31.7006L9.0022 33.3346L9.81817 33.9313C10.4378 34.385 11.0958 34.8017 11.7736 35.1712L12.6621 35.6543L13.6278 33.8779L12.7401 33.3942C12.1491 33.0725 11.5671 32.7037 11.0117 32.2973" fill="#00807B"/>
</svg>
